<svg width="64" height="48" viewBox="0 0 64 48" fill="none" xmlns="http://www.w3.org/2000/svg">
<path d="M58.6667 0H18.6667C16.8267 0 15.3867 0.933334 14.4267 2.34667L0 24L14.4267 45.6267C15.3867 47.04 16.8267 48 18.6667 48H58.6667C60.0812 48 61.4377 47.4381 62.4379 46.4379C63.4381 45.4377 64 44.0812 64 42.6667V5.33333C64 3.91885 63.4381 2.56229 62.4379 1.5621C61.4377 0.561903 60.0812 0 58.6667 0ZM50.6667 33.5733L46.9067 37.3333L37.3333 27.76L27.76 37.3333L24 33.5733L33.5733 24L24 14.4267L27.76 10.6667L37.3333 20.24L46.9067 10.6667L50.6667 14.4267L41.0933 24" fill="#97AFEA"/>
</svg>
