<svg width="560" height="240" viewBox="0 0 560 240" fill="none" xmlns="http://www.w3.org/2000/svg">
<g id="Group 12">
<path id="Polygon 3" d="M228.5 133L241.5 151.5L213 179.5L228.5 133Z" fill="url(#paint0_linear_20_258)"/>
<path id="Polygon 14" d="M189 196L190.5 214.5L178 208.5L189 196Z" fill="#C2C3D5"/>
<path id="Polygon 13" d="M375 149.5L520.5 255.5H431L375 149.5Z" fill="url(#paint1_linear_20_258)"/>
<path id="Polygon 12" d="M326 210L393 245L340 265L326 210Z" fill="#4EA3C0"/>
<path id="Polygon 11" d="M192 127L200.5 121.5L204.5 133.5L192 127Z" fill="#549ABF"/>
<path id="Polygon 10" d="M47 76.5L57 71L62 93L47 76.5Z" fill="#B3C4C2"/>
<path id="Polygon 9" d="M47.5 104L67 125L59.5 137.5L47.5 104Z" fill="url(#paint2_linear_20_258)"/>
<path id="Polygon 8" d="M79 148L106.5 189.5L81 222L79 148Z" fill="url(#paint3_linear_20_258)"/>
<path id="Polygon 7" d="M260 177.5L238 235.5L201.5 195.5L260 177.5Z" fill="url(#paint4_linear_20_258)"/>
<path id="Polygon 6" d="M67 151V197L-62 99.5L67 151Z" fill="url(#paint5_linear_20_258)"/>
<path id="Polygon 4" d="M134 174.5L154.5 204L120.5 260.5L134 174.5Z" fill="url(#paint6_linear_20_258)"/>
<path id="Rectangle" d="M0 0H560V240H0V0Z" fill="url(#paint7_linear_20_258)"/>
</g>
<defs>
<linearGradient id="paint0_linear_20_258" x1="208.5" y1="174" x2="235.5" y2="146.5" gradientUnits="userSpaceOnUse">
<stop stop-color="#7ECFED"/>
<stop offset="1" stop-color="#4994B4"/>
</linearGradient>
<linearGradient id="paint1_linear_20_258" x1="422.5" y1="227" x2="456.5" y2="212" gradientUnits="userSpaceOnUse">
<stop stop-color="#488DB4"/>
<stop offset="1" stop-color="#6CF2DA"/>
</linearGradient>
<linearGradient id="paint2_linear_20_258" x1="53.5" y1="116" x2="63" y2="126" gradientUnits="userSpaceOnUse">
<stop stop-color="#83EBFF"/>
<stop offset="1" stop-color="#64BCDD"/>
</linearGradient>
<linearGradient id="paint3_linear_20_258" x1="92.75" y1="148" x2="92.75" y2="222" gradientUnits="userSpaceOnUse">
<stop stop-color="#5BBBD5"/>
<stop offset="1" stop-color="#61CEDB"/>
</linearGradient>
<linearGradient id="paint4_linear_20_258" x1="221.5" y1="216.5" x2="245" y2="199" gradientUnits="userSpaceOnUse">
<stop stop-color="#6BE8FC"/>
<stop offset="1" stop-color="#4CA0BD"/>
</linearGradient>
<linearGradient id="paint5_linear_20_258" x1="2" y1="136" x2="62.5" y2="180" gradientUnits="userSpaceOnUse">
<stop stop-color="#51A8BB"/>
<stop offset="1" stop-color="#62CDDD"/>
</linearGradient>
<linearGradient id="paint6_linear_20_258" x1="129" y1="237" x2="137" y2="182" gradientUnits="userSpaceOnUse">
<stop stop-color="#85F4FF"/>
<stop offset="1" stop-color="#56B9EF"/>
</linearGradient>
<linearGradient id="paint7_linear_20_258" x1="193" y1="282" x2="257.5" y2="120" gradientUnits="userSpaceOnUse">
<stop stop-color="#4BC3C9"/>
<stop offset="1" stop-color="#4BC3C9" stop-opacity="0"/>
</linearGradient>
</defs>
</svg>
