<svg width="1512" height="823" viewBox="0 0 1512 823" fill="none" xmlns="http://www.w3.org/2000/svg">
<rect x="-48" y="-12.3542" width="66.5259" height="1013" transform="rotate(-34.4635 -48 -12.3542)" fill="url(#paint0_linear_5_63)"/>
<rect width="134.58" height="813.214" transform="matrix(-0.855145 -0.518388 -0.518388 0.855145 1306.86 -12.2353)" fill="url(#paint1_linear_5_63)"/>
<rect width="66.5259" height="1013" transform="matrix(-0.824486 -0.565882 -0.565882 0.824486 1560.09 -12.3542)" fill="url(#paint2_linear_5_63)"/>
<rect x="200" y="-36.3044" width="128.66" height="852.295" transform="rotate(-31.2242 200 -36.3044)" fill="url(#paint3_linear_5_63)"/>
<circle cx="756.5" cy="385.5" r="262.5" stroke="url(#paint4_linear_5_63)" stroke-width="10"/>
<path d="M758 771L1003.95 355.5V212.5L512.049 355.5L758 771Z" fill="url(#paint5_linear_5_63)"/>
<path d="M426 217.205L531.425 217.205L806 693.5L756.5 777.5L426 217.205Z" fill="url(#paint6_linear_5_63)"/>
<path d="M1095.73 207.393L993.359 201.811L751.949 617.405L804.464 695.885L1095.73 207.393Z" fill="url(#paint7_linear_5_63)"/>
<line x1="430.289" y1="214.43" x2="762.289" y2="768.43" stroke="url(#paint8_linear_5_63)" stroke-width="10"/>
<path d="M849.388 317.358L914.931 334.698L867.911 256.382L849.388 317.358Z" fill="url(#paint9_linear_5_63)"/>
<path d="M726 292.729L851.715 338.163L785.665 275.566L726 292.729Z" fill="url(#paint10_linear_5_63)"/>
<path d="M937.408 276.091L942.472 267.113L929.348 265.697L937.408 276.091Z" fill="#EBF6FE"/>
<path d="M946.085 256.759L949.354 246.768L921.786 247.508L946.085 256.759Z" fill="#FFFAFD"/>
<path d="M919.578 310.169L926.023 273.567L909.497 277.194L919.578 310.169Z" fill="url(#paint11_linear_5_63)"/>
<path d="M852.937 344.143L886.379 390.992L920.182 345.875L852.937 344.143Z" fill="url(#paint12_linear_5_63)"/>
<path fill-rule="evenodd" clip-rule="evenodd" d="M755.031 765.934L760.862 775.666L1101.58 206.134L1093 201L755.031 765.934Z" fill="url(#paint13_linear_5_63)"/>
<line x1="706.651" y1="353.414" x2="617.651" y2="377.414" stroke="#575655" stroke-width="5"/>
<line x1="566.874" y1="360.503" x2="705.874" y2="353.503" stroke="#79746F" stroke-width="5"/>
<line x1="616.721" y1="379.511" x2="1092.72" y2="341.511" stroke="url(#paint14_linear_5_63)" stroke-width="7"/>
<line x1="925.349" y1="496.586" x2="1014.35" y2="472.586" stroke="#575655" stroke-width="5"/>
<line x1="1065.13" y1="489.497" x2="926.126" y2="496.497" stroke="#79746F" stroke-width="5"/>
<line x1="1015.28" y1="470.489" x2="539.279" y2="508.489" stroke="url(#paint15_linear_5_63)" stroke-width="7"/>
<path d="M745.5 619L805 651.5L717 676L745.5 619Z" fill="url(#paint16_linear_5_63)"/>
<path d="M639 552L761.5 605.5H670.5L639 552Z" fill="url(#paint17_linear_5_63)"/>
<path d="M781 709.5L778.5 719.5L768 711.5L781 709.5Z" fill="#EBF6FE"/>
<path d="M774 729.5L769.5 739L750 719.5L774 729.5Z" fill="#FFFAFD"/>
<path d="M791.5 672.5L771 703.5L761.5 689.5L791.5 672.5Z" fill="url(#paint18_linear_5_63)"/>
<path d="M766.5 602L823 591L816.5 647L766.5 602Z" fill="url(#paint19_linear_5_63)"/>
<path d="M511.143 422.131C511.007 420.756 510.422 419.687 509.388 418.926C508.354 418.165 506.95 417.784 505.178 417.784C503.973 417.784 502.956 417.955 502.126 418.295C501.297 418.625 500.661 419.085 500.217 419.676C499.786 420.267 499.57 420.938 499.57 421.688C499.547 422.312 499.678 422.858 499.962 423.324C500.257 423.79 500.661 424.193 501.172 424.534C501.683 424.864 502.274 425.153 502.945 425.403C503.615 425.642 504.331 425.847 505.092 426.017L508.229 426.767C509.751 427.108 511.149 427.562 512.422 428.131C513.695 428.699 514.797 429.398 515.729 430.227C516.661 431.057 517.382 432.034 517.893 433.159C518.416 434.284 518.683 435.574 518.695 437.028C518.683 439.165 518.138 441.017 517.058 442.585C515.99 444.142 514.445 445.352 512.422 446.216C510.411 447.068 507.984 447.494 505.143 447.494C502.325 447.494 499.871 447.062 497.78 446.199C495.7 445.335 494.075 444.057 492.905 442.364C491.746 440.659 491.138 438.551 491.081 436.04H498.223C498.303 437.21 498.638 438.187 499.229 438.972C499.831 439.744 500.632 440.33 501.632 440.727C502.643 441.114 503.786 441.307 505.058 441.307C506.308 441.307 507.393 441.125 508.314 440.761C509.246 440.398 509.967 439.892 510.479 439.244C510.99 438.597 511.246 437.852 511.246 437.011C511.246 436.227 511.013 435.568 510.547 435.034C510.092 434.5 509.422 434.045 508.536 433.67C507.661 433.295 506.587 432.955 505.314 432.648L501.513 431.693C498.57 430.977 496.246 429.858 494.541 428.335C492.837 426.812 491.99 424.761 492.001 422.182C491.99 420.068 492.553 418.222 493.689 416.642C494.837 415.062 496.411 413.83 498.411 412.943C500.411 412.057 502.683 411.614 505.229 411.614C507.82 411.614 510.081 412.057 512.013 412.943C513.956 413.83 515.467 415.062 516.547 416.642C517.626 418.222 518.183 420.051 518.217 422.131H511.143ZM540.255 447.511C537.561 447.511 535.243 446.966 533.3 445.875C531.368 444.773 529.88 443.216 528.834 441.205C527.789 439.182 527.266 436.79 527.266 434.028C527.266 431.335 527.789 428.972 528.834 426.938C529.88 424.903 531.351 423.318 533.249 422.182C535.158 421.045 537.397 420.477 539.965 420.477C541.692 420.477 543.3 420.756 544.789 421.312C546.289 421.858 547.595 422.682 548.709 423.784C549.834 424.886 550.709 426.273 551.334 427.943C551.959 429.602 552.272 431.545 552.272 433.773V435.767H530.164V431.267H545.436C545.436 430.222 545.209 429.295 544.755 428.489C544.3 427.682 543.669 427.051 542.862 426.597C542.067 426.131 541.141 425.898 540.084 425.898C538.982 425.898 538.005 426.153 537.152 426.665C536.311 427.165 535.652 427.841 535.175 428.693C534.698 429.534 534.453 430.472 534.442 431.506V435.784C534.442 437.08 534.681 438.199 535.158 439.142C535.647 440.085 536.334 440.812 537.22 441.324C538.107 441.835 539.158 442.091 540.374 442.091C541.181 442.091 541.919 441.977 542.59 441.75C543.26 441.523 543.834 441.182 544.311 440.727C544.789 440.273 545.152 439.716 545.402 439.057L552.118 439.5C551.777 441.114 551.078 442.523 550.022 443.727C548.976 444.92 547.624 445.852 545.965 446.523C544.317 447.182 542.414 447.511 540.255 447.511ZM561.81 447V420.818H568.731V425.438H569.037C569.583 423.903 570.492 422.693 571.765 421.807C573.037 420.92 574.56 420.477 576.333 420.477C578.128 420.477 579.657 420.926 580.918 421.824C582.18 422.71 583.02 423.915 583.441 425.438H583.714C584.248 423.938 585.214 422.739 586.611 421.841C588.02 420.932 589.685 420.477 591.606 420.477C594.049 420.477 596.032 421.256 597.555 422.812C599.089 424.358 599.856 426.551 599.856 429.392V447H592.611V430.824C592.611 429.369 592.225 428.278 591.452 427.551C590.68 426.824 589.714 426.46 588.555 426.46C587.236 426.46 586.208 426.881 585.469 427.722C584.731 428.551 584.361 429.648 584.361 431.011V447H577.322V430.67C577.322 429.386 576.952 428.364 576.214 427.602C575.486 426.841 574.526 426.46 573.333 426.46C572.526 426.46 571.799 426.665 571.151 427.074C570.515 427.472 570.009 428.034 569.634 428.761C569.259 429.477 569.072 430.318 569.072 431.284V447H561.81ZM622.323 447.511C619.63 447.511 617.312 446.966 615.369 445.875C613.437 444.773 611.948 443.216 610.903 441.205C609.857 439.182 609.335 436.79 609.335 434.028C609.335 431.335 609.857 428.972 610.903 426.938C611.948 424.903 613.42 423.318 615.318 422.182C617.227 421.045 619.465 420.477 622.034 420.477C623.761 420.477 625.369 420.756 626.857 421.312C628.357 421.858 629.664 422.682 630.778 423.784C631.903 424.886 632.778 426.273 633.403 427.943C634.028 429.602 634.34 431.545 634.34 433.773V435.767H612.232V431.267H627.505C627.505 430.222 627.278 429.295 626.823 428.489C626.369 427.682 625.738 427.051 624.931 426.597C624.136 426.131 623.21 425.898 622.153 425.898C621.051 425.898 620.073 426.153 619.221 426.665C618.38 427.165 617.721 427.841 617.244 428.693C616.766 429.534 616.522 430.472 616.511 431.506V435.784C616.511 437.08 616.749 438.199 617.227 439.142C617.715 440.085 618.403 440.812 619.289 441.324C620.176 441.835 621.227 442.091 622.443 442.091C623.249 442.091 623.988 441.977 624.659 441.75C625.329 441.523 625.903 441.182 626.38 440.727C626.857 440.273 627.221 439.716 627.471 439.057L634.187 439.5C633.846 441.114 633.147 442.523 632.09 443.727C631.045 444.92 629.693 445.852 628.034 446.523C626.386 447.182 624.482 447.511 622.323 447.511ZM665.663 428.284L659.015 428.693C658.902 428.125 658.657 427.614 658.282 427.159C657.907 426.693 657.413 426.324 656.799 426.051C656.197 425.767 655.476 425.625 654.635 425.625C653.51 425.625 652.561 425.864 651.788 426.341C651.015 426.807 650.629 427.432 650.629 428.216C650.629 428.841 650.879 429.369 651.379 429.801C651.879 430.233 652.737 430.58 653.953 430.841L658.691 431.795C661.237 432.318 663.135 433.159 664.385 434.318C665.635 435.477 666.26 437 666.26 438.886C666.26 440.602 665.754 442.108 664.743 443.403C663.743 444.699 662.368 445.71 660.618 446.438C658.879 447.153 656.873 447.511 654.601 447.511C651.135 447.511 648.373 446.79 646.316 445.347C644.271 443.892 643.072 441.915 642.72 439.415L649.862 439.04C650.078 440.097 650.601 440.903 651.43 441.46C652.26 442.006 653.322 442.278 654.618 442.278C655.89 442.278 656.913 442.034 657.686 441.545C658.47 441.045 658.868 440.403 658.879 439.619C658.868 438.96 658.589 438.42 658.044 438C657.498 437.568 656.657 437.239 655.521 437.011L650.987 436.108C648.43 435.597 646.527 434.71 645.277 433.449C644.038 432.187 643.419 430.58 643.419 428.625C643.419 426.943 643.873 425.494 644.782 424.278C645.703 423.062 646.993 422.125 648.652 421.466C650.322 420.807 652.277 420.477 654.515 420.477C657.822 420.477 660.424 421.176 662.322 422.574C664.231 423.972 665.345 425.875 665.663 428.284ZM689.558 420.818V426.273H673.791V420.818H689.558ZM677.371 414.545H684.632V438.955C684.632 439.625 684.734 440.148 684.939 440.523C685.143 440.886 685.428 441.142 685.791 441.29C686.166 441.437 686.598 441.511 687.087 441.511C687.428 441.511 687.768 441.483 688.109 441.426C688.45 441.358 688.712 441.307 688.893 441.273L690.036 446.676C689.672 446.79 689.161 446.92 688.501 447.068C687.842 447.227 687.041 447.324 686.098 447.358C684.348 447.426 682.814 447.193 681.496 446.659C680.189 446.125 679.172 445.295 678.445 444.17C677.717 443.045 677.359 441.625 677.371 439.909V414.545ZM710.739 447.511C708.046 447.511 705.728 446.966 703.784 445.875C701.853 444.773 700.364 443.216 699.318 441.205C698.273 439.182 697.75 436.79 697.75 434.028C697.75 431.335 698.273 428.972 699.318 426.938C700.364 424.903 701.836 423.318 703.733 422.182C705.642 421.045 707.881 420.477 710.449 420.477C712.176 420.477 713.784 420.756 715.273 421.312C716.773 421.858 718.08 422.682 719.193 423.784C720.318 424.886 721.193 426.273 721.818 427.943C722.443 429.602 722.756 431.545 722.756 433.773V435.767H700.648V431.267H715.921C715.921 430.222 715.693 429.295 715.239 428.489C714.784 427.682 714.154 427.051 713.347 426.597C712.551 426.131 711.625 425.898 710.568 425.898C709.466 425.898 708.489 426.153 707.637 426.665C706.796 427.165 706.137 427.841 705.659 428.693C705.182 429.534 704.938 430.472 704.926 431.506V435.784C704.926 437.08 705.165 438.199 705.642 439.142C706.131 440.085 706.818 440.812 707.705 441.324C708.591 441.835 709.642 442.091 710.858 442.091C711.665 442.091 712.404 441.977 713.074 441.75C713.745 441.523 714.318 441.182 714.796 440.727C715.273 440.273 715.637 439.716 715.887 439.057L722.603 439.5C722.262 441.114 721.563 442.523 720.506 443.727C719.461 444.92 718.108 445.852 716.449 446.523C714.801 447.182 712.898 447.511 710.739 447.511ZM732.295 447V420.818H739.334V425.386H739.607C740.084 423.761 740.886 422.534 742.011 421.705C743.136 420.864 744.431 420.443 745.897 420.443C746.261 420.443 746.653 420.466 747.073 420.511C747.493 420.557 747.863 420.619 748.181 420.699V427.142C747.84 427.04 747.368 426.949 746.766 426.869C746.164 426.79 745.613 426.75 745.113 426.75C744.045 426.75 743.09 426.983 742.249 427.449C741.42 427.903 740.761 428.54 740.272 429.358C739.795 430.176 739.556 431.119 739.556 432.188V447H732.295ZM791.718 422.131C791.582 420.756 790.997 419.687 789.963 418.926C788.929 418.165 787.525 417.784 785.753 417.784C784.548 417.784 783.531 417.955 782.701 418.295C781.872 418.625 781.236 419.085 780.792 419.676C780.361 420.267 780.145 420.938 780.145 421.688C780.122 422.312 780.253 422.858 780.537 423.324C780.832 423.79 781.236 424.193 781.747 424.534C782.258 424.864 782.849 425.153 783.52 425.403C784.19 425.642 784.906 425.847 785.667 426.017L788.804 426.767C790.326 427.108 791.724 427.562 792.997 428.131C794.27 428.699 795.372 429.398 796.304 430.227C797.236 431.057 797.957 432.034 798.468 433.159C798.991 434.284 799.258 435.574 799.27 437.028C799.258 439.165 798.713 441.017 797.633 442.585C796.565 444.142 795.02 445.352 792.997 446.216C790.986 447.068 788.559 447.494 785.718 447.494C782.9 447.494 780.446 447.062 778.355 446.199C776.275 445.335 774.65 444.057 773.48 442.364C772.321 440.659 771.713 438.551 771.656 436.04H778.798C778.878 437.21 779.213 438.187 779.804 438.972C780.406 439.744 781.207 440.33 782.207 440.727C783.218 441.114 784.361 441.307 785.633 441.307C786.883 441.307 787.968 441.125 788.889 440.761C789.821 440.398 790.542 439.892 791.054 439.244C791.565 438.597 791.821 437.852 791.821 437.011C791.821 436.227 791.588 435.568 791.122 435.034C790.667 434.5 789.997 434.045 789.111 433.67C788.236 433.295 787.162 432.955 785.889 432.648L782.088 431.693C779.145 430.977 776.821 429.858 775.116 428.335C773.412 426.812 772.565 424.761 772.576 422.182C772.565 420.068 773.128 418.222 774.264 416.642C775.412 415.062 776.986 413.83 778.986 412.943C780.986 412.057 783.258 411.614 785.804 411.614C788.395 411.614 790.656 412.057 792.588 412.943C794.531 413.83 796.042 415.062 797.122 416.642C798.201 418.222 798.758 420.051 798.792 422.131H791.718ZM825.688 435.852V420.818H832.949V447H825.977V442.244H825.705C825.114 443.778 824.131 445.011 822.756 445.943C821.392 446.875 819.727 447.341 817.761 447.341C816.011 447.341 814.472 446.943 813.142 446.148C811.813 445.352 810.773 444.222 810.023 442.756C809.284 441.29 808.909 439.534 808.898 437.489V420.818H816.159V436.193C816.17 437.739 816.585 438.96 817.403 439.858C818.222 440.756 819.318 441.205 820.693 441.205C821.568 441.205 822.386 441.006 823.148 440.608C823.909 440.199 824.523 439.597 824.989 438.801C825.466 438.006 825.699 437.023 825.688 435.852ZM843.557 447V420.818H850.478V425.438H850.784C851.33 423.903 852.239 422.693 853.512 421.807C854.784 420.92 856.307 420.477 858.08 420.477C859.875 420.477 861.404 420.926 862.665 421.824C863.926 422.71 864.767 423.915 865.188 425.438H865.461C865.995 423.938 866.96 422.739 868.358 421.841C869.767 420.932 871.432 420.477 873.353 420.477C875.796 420.477 877.779 421.256 879.301 422.812C880.836 424.358 881.603 426.551 881.603 429.392V447H874.358V430.824C874.358 429.369 873.972 428.278 873.199 427.551C872.426 426.824 871.461 426.46 870.301 426.46C868.983 426.46 867.955 426.881 867.216 427.722C866.478 428.551 866.108 429.648 866.108 431.011V447H859.068V430.67C859.068 429.386 858.699 428.364 857.96 427.602C857.233 426.841 856.273 426.46 855.08 426.46C854.273 426.46 853.546 426.665 852.898 427.074C852.262 427.472 851.756 428.034 851.381 428.761C851.006 429.477 850.818 430.318 850.818 431.284V447H843.557ZM892.138 447V420.818H899.059V425.438H899.366C899.911 423.903 900.82 422.693 902.093 421.807C903.366 420.92 904.888 420.477 906.661 420.477C908.457 420.477 909.985 420.926 911.246 421.824C912.508 422.71 913.349 423.915 913.769 425.438H914.042C914.576 423.938 915.542 422.739 916.939 421.841C918.349 420.932 920.013 420.477 921.934 420.477C924.377 420.477 926.36 421.256 927.883 422.812C929.417 424.358 930.184 426.551 930.184 429.392V447H922.939V430.824C922.939 429.369 922.553 428.278 921.78 427.551C921.008 426.824 920.042 426.46 918.883 426.46C917.564 426.46 916.536 426.881 915.797 427.722C915.059 428.551 914.689 429.648 914.689 431.011V447H907.65V430.67C907.65 429.386 907.28 428.364 906.542 427.602C905.814 426.841 904.854 426.46 903.661 426.46C902.854 426.46 902.127 426.665 901.479 427.074C900.843 427.472 900.337 428.034 899.962 428.761C899.587 429.477 899.4 430.318 899.4 431.284V447H892.138ZM948.186 447.494C946.515 447.494 945.026 447.205 943.72 446.625C942.413 446.034 941.379 445.165 940.617 444.017C939.867 442.858 939.492 441.415 939.492 439.688C939.492 438.233 939.759 437.011 940.293 436.023C940.828 435.034 941.555 434.239 942.475 433.636C943.396 433.034 944.441 432.58 945.612 432.273C946.793 431.966 948.032 431.75 949.328 431.625C950.85 431.466 952.078 431.318 953.009 431.182C953.941 431.034 954.617 430.818 955.038 430.534C955.458 430.25 955.668 429.83 955.668 429.273V429.17C955.668 428.091 955.328 427.256 954.646 426.665C953.975 426.074 953.021 425.778 951.782 425.778C950.475 425.778 949.436 426.068 948.663 426.648C947.89 427.216 947.379 427.932 947.129 428.795L940.413 428.25C940.754 426.659 941.424 425.284 942.424 424.125C943.424 422.955 944.714 422.057 946.293 421.432C947.884 420.795 949.725 420.477 951.816 420.477C953.271 420.477 954.663 420.648 955.992 420.989C957.333 421.33 958.521 421.858 959.555 422.574C960.6 423.29 961.424 424.21 962.026 425.335C962.629 426.449 962.93 427.784 962.93 429.341V447H956.043V443.369H955.839C955.418 444.188 954.856 444.909 954.151 445.534C953.447 446.148 952.6 446.631 951.612 446.983C950.623 447.324 949.481 447.494 948.186 447.494ZM950.265 442.483C951.333 442.483 952.276 442.273 953.095 441.852C953.913 441.42 954.555 440.841 955.021 440.114C955.487 439.386 955.72 438.562 955.72 437.642V434.864C955.492 435.011 955.18 435.148 954.782 435.273C954.396 435.386 953.958 435.494 953.47 435.597C952.981 435.687 952.492 435.773 952.004 435.852C951.515 435.92 951.072 435.983 950.674 436.04C949.822 436.165 949.078 436.364 948.441 436.636C947.805 436.909 947.311 437.278 946.958 437.744C946.606 438.199 946.43 438.767 946.43 439.449C946.43 440.438 946.788 441.193 947.504 441.716C948.231 442.227 949.151 442.483 950.265 442.483ZM973.363 447V420.818H980.403V425.386H980.676C981.153 423.761 981.954 422.534 983.079 421.705C984.204 420.864 985.5 420.443 986.966 420.443C987.329 420.443 987.721 420.466 988.142 420.511C988.562 420.557 988.932 420.619 989.25 420.699V427.142C988.909 427.04 988.437 426.949 987.835 426.869C987.233 426.79 986.682 426.75 986.182 426.75C985.113 426.75 984.159 426.983 983.318 427.449C982.488 427.903 981.829 428.54 981.341 429.358C980.863 430.176 980.625 431.119 980.625 432.188V447H973.363ZM1003.08 456.818C1002.16 456.818 1001.3 456.744 1000.49 456.597C999.697 456.46 999.038 456.284 998.516 456.068L1000.15 450.648C1001 450.909 1001.77 451.051 1002.45 451.074C1003.15 451.097 1003.74 450.938 1004.24 450.597C1004.75 450.256 1005.17 449.676 1005.49 448.858L1005.91 447.75L996.521 420.818H1004.16L1009.58 440.045H1009.85L1015.32 420.818H1023.01L1012.83 449.83C1012.35 451.239 1011.68 452.466 1010.84 453.511C1010.01 454.568 1008.96 455.381 1007.69 455.949C1006.41 456.528 1004.88 456.818 1003.08 456.818Z" fill="url(#paint20_linear_5_63)"/>
<defs>
<linearGradient id="paint0_linear_5_63" x1="-14.7371" y1="-12.3542" x2="-12.2714" y2="1045.36" gradientUnits="userSpaceOnUse">
<stop stop-color="#324E72"/>
<stop offset="1" stop-color="#324E72" stop-opacity="0"/>
</linearGradient>
<linearGradient id="paint1_linear_5_63" x1="88.1938" y1="596.921" x2="66.8908" y2="605.056" gradientUnits="userSpaceOnUse">
<stop stop-color="#202F45"/>
<stop offset="1" stop-color="#202F45" stop-opacity="0"/>
</linearGradient>
<linearGradient id="paint2_linear_5_63" x1="33.2629" y1="-2.04652e-08" x2="36.3077" y2="1112.69" gradientUnits="userSpaceOnUse">
<stop stop-color="#1C273B"/>
<stop offset="1" stop-color="#324E72" stop-opacity="0"/>
</linearGradient>
<linearGradient id="paint3_linear_5_63" x1="332.378" y1="669.339" x2="263.932" y2="710.874" gradientUnits="userSpaceOnUse">
<stop stop-color="#202F45"/>
<stop offset="1" stop-color="#202F45" stop-opacity="0"/>
</linearGradient>
<linearGradient id="paint4_linear_5_63" x1="882" y1="151" x2="941.5" y2="195" gradientUnits="userSpaceOnUse">
<stop stop-color="#5D5649"/>
<stop offset="0.5" stop-color="#908571"/>
<stop offset="1" stop-color="#514A3E"/>
</linearGradient>
<linearGradient id="paint5_linear_5_63" x1="781.5" y1="223" x2="758" y2="747" gradientUnits="userSpaceOnUse">
<stop stop-color="#6FA6AE"/>
<stop offset="0.550055" stop-color="#266C7A"/>
<stop offset="0.843523" stop-color="#62B4C3"/>
<stop offset="1" stop-color="#BCE7E9"/>
</linearGradient>
<linearGradient id="paint6_linear_5_63" x1="646" y1="499" x2="636.5" y2="510" gradientUnits="userSpaceOnUse">
<stop stop-color="#152A3F"/>
<stop offset="1" stop-color="#152A3F" stop-opacity="0"/>
</linearGradient>
<linearGradient id="paint7_linear_5_63" x1="979.5" y1="366" x2="993" y2="379.5" gradientUnits="userSpaceOnUse">
<stop stop-color="#152D42"/>
<stop offset="1" stop-color="#152D42" stop-opacity="0"/>
</linearGradient>
<linearGradient id="paint8_linear_5_63" x1="605" y1="510.5" x2="661" y2="607" gradientUnits="userSpaceOnUse">
<stop stop-color="#424A50"/>
<stop offset="0.5" stop-color="#CDC8AA"/>
<stop offset="1" stop-color="#8DA293"/>
</linearGradient>
<linearGradient id="paint9_linear_5_63" x1="883.632" y1="367.723" x2="868.284" y2="204.381" gradientUnits="userSpaceOnUse">
<stop stop-color="#4C9EB3"/>
<stop offset="1" stop-color="#74DAE2"/>
</linearGradient>
<linearGradient id="paint10_linear_5_63" x1="679.87" y1="260.721" x2="830.647" y2="317.508" gradientUnits="userSpaceOnUse">
<stop stop-color="#267081"/>
<stop offset="1" stop-color="#3C8F9F"/>
</linearGradient>
<linearGradient id="paint11_linear_5_63" x1="919.559" y1="309.462" x2="920.807" y2="276.89" gradientUnits="userSpaceOnUse">
<stop stop-color="#9AE9EF"/>
<stop offset="1" stop-color="#ECF8F6"/>
</linearGradient>
<linearGradient id="paint12_linear_5_63" x1="867.816" y1="358.244" x2="915.979" y2="347.402" gradientUnits="userSpaceOnUse">
<stop stop-color="#3F91A6"/>
<stop offset="1" stop-color="#63C4D4"/>
</linearGradient>
<linearGradient id="paint13_linear_5_63" x1="904.169" y1="-19051.4" x2="1012.99" y2="-19051.4" gradientUnits="userSpaceOnUse">
<stop stop-color="#424A50"/>
<stop offset="0.5" stop-color="#CBC7A9"/>
<stop offset="1" stop-color="#8DA293"/>
</linearGradient>
<linearGradient id="paint14_linear_5_63" x1="798.5" y1="364" x2="944" y2="352" gradientUnits="userSpaceOnUse">
<stop stop-color="#3E414A"/>
<stop offset="0.650447" stop-color="#EDE8AB"/>
<stop offset="1" stop-color="#6C6354"/>
</linearGradient>
<linearGradient id="paint15_linear_5_63" x1="587.5" y1="499" x2="706" y2="495.5" gradientUnits="userSpaceOnUse">
<stop stop-color="#444E57"/>
<stop offset="0.737385" stop-color="#DBA37C"/>
<stop offset="1" stop-color="#8D857A"/>
</linearGradient>
<linearGradient id="paint16_linear_5_63" x1="805" y1="606" x2="681.5" y2="714" gradientUnits="userSpaceOnUse">
<stop stop-color="#4C9EB3"/>
<stop offset="1" stop-color="#74DAE2"/>
</linearGradient>
<linearGradient id="paint17_linear_5_63" x1="583.5" y1="543.5" x2="732" y2="606" gradientUnits="userSpaceOnUse">
<stop stop-color="#267081"/>
<stop offset="1" stop-color="#3C8F9F"/>
</linearGradient>
<linearGradient id="paint18_linear_5_63" x1="791" y1="673" x2="769.5" y2="697.5" gradientUnits="userSpaceOnUse">
<stop stop-color="#9AE9EF"/>
<stop offset="1" stop-color="#ECF8F6"/>
</linearGradient>
<linearGradient id="paint19_linear_5_63" x1="787" y1="602" x2="814.5" y2="643" gradientUnits="userSpaceOnUse">
<stop stop-color="#3F91A6"/>
<stop offset="1" stop-color="#63C4D4"/>
</linearGradient>
<linearGradient id="paint20_linear_5_63" x1="756.5" y1="415.5" x2="756.5" y2="459" gradientUnits="userSpaceOnUse">
<stop stop-color="#DDFEFF"/>
<stop offset="0.5" stop-color="#83FFFF"/>
<stop offset="1" stop-color="#44EEFF"/>
</linearGradient>
</defs>
</svg>
