<svg width="24" height="24" viewBox="0 0 24 24" fill="none" xmlns="http://www.w3.org/2000/svg">
<path d="M6.19999 2.43994L18.1 14.3399L20.22 12.2199L21.63 13.6299L19.16 16.0999L22.34 19.2799C22.73 19.6699 22.73 20.2999 22.34 20.6899L21.63 21.3999C21.24 21.7899 20.61 21.7899 20.22 21.3999L17 18.2299L14.56 20.6999L13.15 19.2899L15.27 17.1699L3.36999 5.26994V2.43994H6.19999ZM15.89 9.99994L20.63 5.25994V2.43994H17.8L13.06 7.17994L15.89 9.99994ZM10.94 14.9999L8.10999 12.1299L5.89999 14.3399L3.77999 12.2199L2.36999 13.6299L4.83999 16.0999L1.65999 19.2899C1.26999 19.6799 1.26999 20.3099 1.65999 20.6999L2.36999 21.4099C2.75999 21.7999 3.38999 21.7999 3.77999 21.4099L6.99999 18.2299L9.43999 20.6999L10.85 19.2899L8.72999 17.1699L10.94 14.9999Z" fill="black"/>
</svg>
